<?xml version="1.0" encoding="UTF-8" standalone="no"?>
<!-- Generator: Adobe Illustrator 25.3.1, SVG Export Plug-In . SVG Version: 6.00 Build 0)  -->

<svg
   version="1.1"
   id="svg5"
   x="0px"
   y="0px"
   viewBox="0 0 176 44"
   style="enable-background:new 0 0 176 44;"
   xml:space="preserve"
   sodipodi:docname="logo-white.svg"
   inkscape:version="1.1.1 (3bf5ae0d25, 2021-09-20)"
   xmlns:inkscape="http://www.inkscape.org/namespaces/inkscape"
   xmlns:sodipodi="http://sodipodi.sourceforge.net/DTD/sodipodi-0.dtd"
   xmlns="http://www.w3.org/2000/svg"
   xmlns:svg="http://www.w3.org/2000/svg"><defs
   id="defs27">
	
	
</defs>
<style
   type="text/css"
   id="style2">
	.st0{fill:#363545;}
	.st1{fill:#FF5722;stroke:#FF5722;stroke-miterlimit:10;}
	.st2{fill:#0C93BC;}
</style>
<sodipodi:namedview
   bordercolor="#666666"
   borderopacity="1.0"
   id="namedview7"
   inkscape:bbox-nodes="true"
   inkscape:bbox-paths="true"
   inkscape:current-layer="svg5"
   inkscape:cx="210.12173"
   inkscape:cy="211.46867"
   inkscape:document-units="px"
   inkscape:guide-bbox="true"
   inkscape:pagecheckerboard="0"
   inkscape:pageopacity="0.0"
   inkscape:pageshadow="2"
   inkscape:snap-bbox="true"
   inkscape:snap-bbox-edge-midpoints="true"
   inkscape:snap-bbox-midpoints="true"
   inkscape:window-height="969"
   inkscape:window-maximized="0"
   inkscape:window-width="1271"
   inkscape:window-x="130"
   inkscape:window-y="24"
   inkscape:zoom="1.1136402"
   pagecolor="#ffffff"
   showgrid="false"
   showguides="true"
   units="px"
   width="2000px">
	</sodipodi:namedview>
<g
   id="text10709-7_1_"
   style="fill:#ffffff">
		<path
   id="path70186_1_"
   class="st0"
   d="m 49.3,4.4 h 5.1 v 27.8 h -5.1 z"
   style="fill:#ffffff" />
		<path
   id="path70188_1_"
   class="st0"
   d="m 64.7,21.8 c 0,2 0.4,3.6 1.2,4.9 0.8,1.2 2.1,1.8 3.9,1.8 0.8,0 1.6,-0.1 2.3,-0.4 0.7,-0.3 1.3,-0.5 1.7,-0.8 v -12 C 73.4,15.2 73,15.2 72.5,15.1 72,15 71.3,15 70.5,15 c -1.8,0 -3.2,0.6 -4.2,1.8 -1.1,1.2 -1.6,2.9 -1.6,5 z m -5,-0.1 c 0,-1.7 0.2,-3.2 0.7,-4.5 0.5,-1.4 1.2,-2.5 2.1,-3.4 0.9,-1 2.1,-1.7 3.4,-2.2 1.3,-0.5 2.8,-0.8 4.5,-0.8 1.7,0 3.2,0.1 4.7,0.4 1.5,0.2 2.7,0.5 3.6,0.8 v 27.7 h -4.9 v -8.1 c -0.6,0.3 -1.3,0.6 -2.1,0.8 -0.8,0.2 -1.7,0.4 -2.7,0.4 -1.5,0 -2.8,-0.3 -4,-0.8 -1.2,-0.5 -2.1,-1.3 -2.9,-2.2 -0.8,-1 -1.4,-2.1 -1.8,-3.4 -0.4,-1.6 -0.6,-3.1 -0.6,-4.7 z"
   style="fill:#ffffff" />
		<path
   id="path70190_1_"
   class="st0"
   d="m 104,21.7 c 0,1.7 -0.2,3.2 -0.7,4.5 -0.5,1.4 -1.2,2.5 -2.1,3.5 -0.9,1 -2,1.7 -3.2,2.2 -1.2,0.5 -2.6,0.8 -4.1,0.8 -1.5,0 -2.9,-0.3 -4.1,-0.8 -1.2,-0.5 -2.3,-1.3 -3.2,-2.2 -0.9,-1 -1.6,-2.1 -2.1,-3.5 -0.5,-1.4 -0.7,-2.9 -0.7,-4.5 0,-1.7 0.2,-3.2 0.7,-4.5 0.5,-1.4 1.2,-2.5 2.1,-3.5 0.9,-1 2,-1.7 3.2,-2.2 1.2,-0.5 2.6,-0.8 4.1,-0.8 1.5,0 2.8,0.3 4.1,0.8 1.3,0.5 2.3,1.2 3.2,2.2 0.9,1 1.6,2.1 2.1,3.5 0.5,1.3 0.7,2.8 0.7,4.5 z m -5,0 C 99,19.6 98.5,18 97.6,16.8 96.7,15.6 95.5,15 93.8,15 c -1.6,0 -2.9,0.6 -3.8,1.8 -0.9,1.2 -1.3,2.8 -1.3,4.9 0,2.1 0.4,3.8 1.3,5 0.9,1.2 2.2,1.8 3.8,1.8 1.6,0 2.9,-0.6 3.8,-1.8 1,-1.2 1.4,-2.9 1.4,-5 z"
   style="fill:#ffffff" />
		<path
   id="path70192_1_"
   class="st0"
   d="m 109.1,11.9 c 0.9,-0.3 2.2,-0.5 3.7,-0.8 1.5,-0.2 3.2,-0.4 5,-0.4 1.7,0 3.2,0.2 4.3,0.7 1.2,0.5 2.1,1.1 2.7,2 0.7,0.8 1.2,1.8 1.5,3 0.3,1.2 0.4,2.5 0.4,3.9 v 11.8 h -4.9 v -11 c 0,-1.1 -0.1,-2.1 -0.2,-2.8 -0.1,-0.8 -0.4,-1.4 -0.7,-1.9 -0.3,-0.5 -0.8,-0.9 -1.4,-1.1 -0.6,-0.2 -1.3,-0.4 -2.1,-0.4 -0.6,0 -1.3,0 -1.9,0.1 -0.7,0.1 -1.2,0.1 -1.5,0.2 v 16.9 h -4.9 z"
   style="fill:#ffffff" />
		<path
   id="path70194_1_"
   class="st0"
   d="m 132.7,11.9 c 0.9,-0.3 2.2,-0.5 3.7,-0.8 1.5,-0.2 3.2,-0.4 5,-0.4 1.7,0 3.2,0.2 4.3,0.7 1.2,0.5 2.1,1.1 2.7,2 0.7,0.8 1.2,1.8 1.5,3 0.3,1.2 0.4,2.5 0.4,3.9 v 11.8 h -4.9 v -11 c 0,-1.1 -0.1,-2.1 -0.2,-2.8 -0.1,-0.8 -0.4,-1.4 -0.7,-1.9 -0.3,-0.5 -0.8,-0.9 -1.4,-1.1 -0.6,-0.2 -1.3,-0.4 -2.1,-0.4 -0.6,0 -1.3,0 -1.9,0.1 -0.7,0.1 -1.2,0.1 -1.5,0.2 v 16.9 h -4.9 z"
   style="fill:#ffffff" />
		<path
   id="path70196_1_"
   class="st0"
   d="m 175.5,21.7 c 0,1.7 -0.2,3.2 -0.7,4.5 -0.5,1.4 -1.2,2.5 -2.1,3.5 -0.9,1 -2,1.7 -3.2,2.2 -1.2,0.5 -2.6,0.8 -4.1,0.8 -1.5,0 -2.9,-0.3 -4.1,-0.8 -1.2,-0.5 -2.3,-1.3 -3.2,-2.2 -0.9,-1 -1.6,-2.1 -2.1,-3.5 -0.5,-1.4 -0.7,-2.9 -0.7,-4.5 0,-1.7 0.2,-3.2 0.7,-4.5 0.5,-1.4 1.2,-2.5 2.1,-3.5 0.9,-1 2,-1.7 3.2,-2.2 1.2,-0.5 2.6,-0.8 4.1,-0.8 1.5,0 2.8,0.3 4.1,0.8 1.3,0.5 2.3,1.2 3.2,2.2 0.9,1 1.6,2.1 2.1,3.5 0.4,1.3 0.7,2.8 0.7,4.5 z m -5,0 c 0,-2.1 -0.5,-3.7 -1.4,-4.9 -0.9,-1.2 -2.1,-1.8 -3.8,-1.8 -1.6,0 -2.9,0.6 -3.8,1.8 -0.9,1.2 -1.3,2.8 -1.3,4.9 0,2.1 0.4,3.8 1.3,5 0.9,1.2 2.2,1.8 3.8,1.8 1.6,0 2.9,-0.6 3.8,-1.8 0.9,-1.2 1.4,-2.9 1.4,-5 z"
   style="fill:#ffffff" />
	</g><g
   id="g22">
		<g
   id="g16">
			<path
   class="st1"
   d="M 15.7,31.4 C 11.7,29.4 9,25.3 9,20.5 c 0,-1.4 0.2,-2.8 0.7,-4 -0.6,0.2 -1.2,0.3 -1.9,0.3 -2.7,0 -5,-1.9 -5.5,-4.5 -1.1,2.5 -1.7,5.3 -1.7,8.2 0,7.9 4.4,14.7 10.9,18.2 z"
   id="path12" />
			<path
   class="st2"
   d="M 21.1,0 C 15.6,0 10.5,2.2 6.9,5.7 c 0.3,0 0.6,-0.1 0.8,-0.1 3.1,0 5.6,2.5 5.6,5.6 2.1,-1.7 4.8,-2.8 7.8,-2.8 6.7,0 12.2,5.4 12.2,12.2 0,6.8 -5.4,12.2 -12.2,12.2 -1.1,0 -2.2,-0.2 -3.3,-0.5 l -4.3,7.4 c 2.3,0.9 4.9,1.4 7.6,1.4 11.4,0 20.6,-9.2 20.6,-20.6 C 41.7,9.1 32.4,0 21.1,0 Z"
   id="path14" />
		</g>
		<circle
   class="st1"
   cx="7.6999998"
   cy="11.2"
   r="3.4000001"
   id="circle18" />
		<path
   class="st2"
   d="m 27.2,42.4 10.2,1.6 2.1,-9.9 c -3.1,4.5 -7.3,7.2 -12.3,8.3 z"
   id="path20" />
	</g>
</svg>
