<?xml version="1.0" encoding="utf-8"?>
<!-- Generator: Adobe Illustrator 25.3.1, SVG Export Plug-In . SVG Version: 6.00 Build 0)  -->
<svg version="1.1"
	 id="svg5" xmlns:inkscape="http://www.inkscape.org/namespaces/inkscape" xmlns:sodipodi="http://sodipodi.sourceforge.net/DTD/sodipodi-0.dtd" xmlns:svg="http://www.w3.org/2000/svg"
	 xmlns="http://www.w3.org/2000/svg" xmlns:xlink="http://www.w3.org/1999/xlink" x="0px" y="0px" viewBox="0 0 176 44"
	 style="enable-background:new 0 0 176 44;" xml:space="preserve">
<style type="text/css">
	.st0{fill:#363545;}
	.st1{fill:#FF5722;stroke:#FF5722;stroke-miterlimit:10;}
	.st2{fill:#0C93BC;}
</style>
<sodipodi:namedview  bordercolor="#666666" borderopacity="1.0" id="namedview7" inkscape:bbox-nodes="true" inkscape:bbox-paths="true" inkscape:current-layer="layer1" inkscape:cx="786.60956" inkscape:cy="919.50707" inkscape:document-units="px" inkscape:guide-bbox="true" inkscape:pagecheckerboard="0" inkscape:pageopacity="0.0" inkscape:pageshadow="2" inkscape:snap-bbox="true" inkscape:snap-bbox-edge-midpoints="true" inkscape:snap-bbox-midpoints="true" inkscape:window-height="1043" inkscape:window-maximized="1" inkscape:window-width="1920" inkscape:window-x="1600" inkscape:window-y="0" inkscape:zoom="0.27841004" pagecolor="#ffffff" showgrid="false" showguides="true" units="px" width="2000px">
	</sodipodi:namedview>
<g>
	<g id="text10709-7_1_">
		<path id="path70186_1_" class="st0" d="M49.3,4.4h5.1v27.8h-5.1V4.4z"/>
		<path id="path70188_1_" class="st0" d="M64.7,21.8c0,2,0.4,3.6,1.2,4.9c0.8,1.2,2.1,1.8,3.9,1.8c0.8,0,1.6-0.1,2.3-0.4
			c0.7-0.3,1.3-0.5,1.7-0.8v-12c-0.4-0.1-0.8-0.1-1.3-0.2c-0.5-0.1-1.2-0.1-2-0.1c-1.8,0-3.2,0.6-4.2,1.8
			C65.2,18,64.7,19.7,64.7,21.8z M59.7,21.7c0-1.7,0.2-3.2,0.7-4.5c0.5-1.4,1.2-2.5,2.1-3.4c0.9-1,2.1-1.7,3.4-2.2
			c1.3-0.5,2.8-0.8,4.5-0.8c1.7,0,3.2,0.1,4.7,0.4c1.5,0.2,2.7,0.5,3.6,0.8v27.7h-4.9v-8.1c-0.6,0.3-1.3,0.6-2.1,0.8
			c-0.8,0.2-1.7,0.4-2.7,0.4c-1.5,0-2.8-0.3-4-0.8c-1.2-0.5-2.1-1.3-2.9-2.2c-0.8-1-1.4-2.1-1.8-3.4C59.9,24.8,59.7,23.3,59.7,21.7
			L59.7,21.7z"/>
		<path id="path70190_1_" class="st0" d="M104,21.7c0,1.7-0.2,3.2-0.7,4.5c-0.5,1.4-1.2,2.5-2.1,3.5c-0.9,1-2,1.7-3.2,2.2
			c-1.2,0.5-2.6,0.8-4.1,0.8c-1.5,0-2.9-0.3-4.1-0.8c-1.2-0.5-2.3-1.3-3.2-2.2c-0.9-1-1.6-2.1-2.1-3.5c-0.5-1.4-0.7-2.9-0.7-4.5
			c0-1.7,0.2-3.2,0.7-4.5c0.5-1.4,1.2-2.5,2.1-3.5c0.9-1,2-1.7,3.2-2.2c1.2-0.5,2.6-0.8,4.1-0.8c1.5,0,2.8,0.3,4.1,0.8
			c1.3,0.5,2.3,1.2,3.2,2.2c0.9,1,1.6,2.1,2.1,3.5C103.8,18.5,104,20,104,21.7z M99,21.7c0-2.1-0.5-3.7-1.4-4.9
			c-0.9-1.2-2.1-1.8-3.8-1.8c-1.6,0-2.9,0.6-3.8,1.8c-0.9,1.2-1.3,2.8-1.3,4.9c0,2.1,0.4,3.8,1.3,5c0.9,1.2,2.2,1.8,3.8,1.8
			c1.6,0,2.9-0.6,3.8-1.8C98.6,25.5,99,23.8,99,21.7z"/>
		<path id="path70192_1_" class="st0" d="M109.1,11.9c0.9-0.3,2.2-0.5,3.7-0.8c1.5-0.2,3.2-0.4,5-0.4c1.7,0,3.2,0.2,4.3,0.7
			c1.2,0.5,2.1,1.1,2.7,2c0.7,0.8,1.2,1.8,1.5,3c0.3,1.2,0.4,2.5,0.4,3.9v11.8h-4.9v-11c0-1.1-0.1-2.1-0.2-2.8
			c-0.1-0.8-0.4-1.4-0.7-1.9c-0.3-0.5-0.8-0.9-1.4-1.1c-0.6-0.2-1.3-0.4-2.1-0.4c-0.6,0-1.3,0-1.9,0.1c-0.7,0.1-1.2,0.1-1.5,0.2
			v16.9h-4.9V11.9z"/>
		<path id="path70194_1_" class="st0" d="M132.7,11.9c0.9-0.3,2.2-0.5,3.7-0.8c1.5-0.2,3.2-0.4,5-0.4c1.7,0,3.2,0.2,4.3,0.7
			c1.2,0.5,2.1,1.1,2.7,2c0.7,0.8,1.2,1.8,1.5,3c0.3,1.2,0.4,2.5,0.4,3.9v11.8h-4.9v-11c0-1.1-0.1-2.1-0.2-2.8
			c-0.1-0.8-0.4-1.4-0.7-1.9c-0.3-0.5-0.8-0.9-1.4-1.1c-0.6-0.2-1.3-0.4-2.1-0.4c-0.6,0-1.3,0-1.9,0.1c-0.7,0.1-1.2,0.1-1.5,0.2
			v16.9h-4.9V11.9z"/>
		<path id="path70196_1_" class="st0" d="M175.5,21.7c0,1.7-0.2,3.2-0.7,4.5c-0.5,1.4-1.2,2.5-2.1,3.5c-0.9,1-2,1.7-3.2,2.2
			c-1.2,0.5-2.6,0.8-4.1,0.8s-2.9-0.3-4.1-0.8c-1.2-0.5-2.3-1.3-3.2-2.2c-0.9-1-1.6-2.1-2.1-3.5c-0.5-1.4-0.7-2.9-0.7-4.5
			c0-1.7,0.2-3.2,0.7-4.5c0.5-1.4,1.2-2.5,2.1-3.5c0.9-1,2-1.7,3.2-2.2c1.2-0.5,2.6-0.8,4.1-0.8c1.5,0,2.8,0.3,4.1,0.8
			c1.3,0.5,2.3,1.2,3.2,2.2c0.9,1,1.6,2.1,2.1,3.5C175.2,18.5,175.5,20,175.5,21.7L175.5,21.7z M170.5,21.7c0-2.1-0.5-3.7-1.4-4.9
			c-0.9-1.2-2.1-1.8-3.8-1.8c-1.6,0-2.9,0.6-3.8,1.8c-0.9,1.2-1.3,2.8-1.3,4.9c0,2.1,0.4,3.8,1.3,5c0.9,1.2,2.2,1.8,3.8,1.8
			c1.6,0,2.9-0.6,3.8-1.8C170,25.5,170.5,23.8,170.5,21.7z"/>
	</g>
	<g>
		<g>
			<path class="st1" d="M15.7,31.4c-4-2-6.7-6.1-6.7-10.9c0-1.4,0.2-2.8,0.7-4c-0.6,0.2-1.2,0.3-1.9,0.3c-2.7,0-5-1.9-5.5-4.5
				c-1.1,2.5-1.7,5.3-1.7,8.2c0,7.9,4.4,14.7,10.9,18.2L15.7,31.4z"/>
			<path class="st2" d="M21.1,0C15.6,0,10.5,2.2,6.9,5.7c0.3,0,0.6-0.1,0.8-0.1c3.1,0,5.6,2.5,5.6,5.6c2.1-1.7,4.8-2.8,7.8-2.8
				c6.7,0,12.2,5.4,12.2,12.2s-5.4,12.2-12.2,12.2c-1.1,0-2.2-0.2-3.3-0.5l-4.3,7.4c2.3,0.9,4.9,1.4,7.6,1.4
				c11.4,0,20.6-9.2,20.6-20.6S32.4,0,21.1,0z"/>
		</g>
		<circle class="st1" cx="7.7" cy="11.2" r="3.4"/>
		<path class="st2" d="M27.2,42.4L37.4,44l2.1-9.9C36.4,38.6,32.2,41.3,27.2,42.4z"/>
	</g>
</g>
</svg>
