<?xml version="1.0" encoding="UTF-8" standalone="no"?>
<!-- Created with Inkscape (http://www.inkscape.org/) -->

<svg
   width="2000"
   height="500"
   viewBox="0 0 529.16665 132.29167"
   version="1.1"
   id="svg5"
   inkscape:version="1.1.1 (3bf5ae0d25, 2021-09-20)"
   sodipodi:docname="logo-white.svg"
   xmlns:inkscape="http://www.inkscape.org/namespaces/inkscape"
   xmlns:sodipodi="http://sodipodi.sourceforge.net/DTD/sodipodi-0.dtd"
   xmlns="http://www.w3.org/2000/svg"
   xmlns:svg="http://www.w3.org/2000/svg">
  <sodipodi:namedview
     id="namedview7"
     pagecolor="#ffffff"
     bordercolor="#666666"
     borderopacity="1.0"
     inkscape:pageshadow="2"
     inkscape:pageopacity="0.0"
     inkscape:pagecheckerboard="0"
     inkscape:document-units="px"
     showgrid="false"
     units="px"
     showguides="true"
     inkscape:guide-bbox="true"
     inkscape:snap-bbox="true"
     inkscape:bbox-paths="true"
     inkscape:bbox-nodes="true"
     inkscape:snap-bbox-edge-midpoints="true"
     inkscape:snap-bbox-midpoints="true"
     width="2000px"
     inkscape:zoom="0.27841004"
     inkscape:cx="1231.9958"
     inkscape:cy="919.50706"
     inkscape:window-width="1920"
     inkscape:window-height="1043"
     inkscape:window-x="1600"
     inkscape:window-y="0"
     inkscape:window-maximized="1"
     inkscape:current-layer="layer1" />
  <defs
     id="defs2" />
  <g
     inkscape:label="Layer 1"
     inkscape:groupmode="layer"
     id="layer1">
    <g
       id="g70115"
       transform="matrix(1.0079206,0,0,1,-311.90109,-270.62764)">
      <g
         id="g69649">
        <path
           style="fill:#f8f9fa;fill-opacity:1;stroke-width:0.732046"
           d="m 327.85469,316.16139 c -3.90184,-1.36175 -6.26491,-3.44701 -7.63852,-6.7405 -3.79075,-9.08911 3.99101,-18.56487 13.54156,-16.48937 5.4263,1.17923 8.0491,3.81617 9.14028,9.18954 1.03124,5.07813 0.0475,8.59903 -3.1664,11.33287 -3.11671,2.65123 -8.5132,3.8814 -11.87692,2.70746 z"
           id="path20505-5" />
        <path
           style="fill:#f8f9fa;fill-opacity:1;stroke-width:0.732046"
           d="m 335.05048,389.2394 c -6.40133,-5.05059 -13.6957,-13.61637 -17.45629,-20.49893 -4.5082,-8.25076 -7.93056,-20.98711 -8.13172,-30.25885 -0.17348,-8.03036 1.50559,-18.6953 2.91864,-18.53846 0.54269,0.0602 6.72187,1.04708 13.73148,2.19299 l 12.74472,2.08351 -0.97721,4.13723 c -3.28308,13.89971 2.41111,29.98579 13.67258,38.625 l 3.4308,2.63193 -7.08204,10.88856 c -3.89508,5.98871 -7.37671,11.19628 -7.73693,11.57234 -0.37964,0.39622 -2.52981,-0.7955 -5.11489,-2.83509 z"
           id="path20503-2" />
        <path
           style="fill:#ec2227;fill-opacity:1;stroke-width:0.732046"
           d="m 418.6661,380.28478 c -3.52444,-1.64939 -5.45589,-4.81357 -6.6174,-10.84089 -0.83518,-4.33405 -0.67536,-6.32187 1.25237,-15.57519 2.41526,-11.59339 2.48184,-17.77604 0.28009,-26.00521 -4.41575,-16.502 -18.18434,-28.27288 -34.86645,-29.80604 -3.8319,-0.35218 -6.17379,-0.0273 -13.15271,1.82458 -8.60298,2.28425 -8.52853,2.24553 -15.82233,7.91478 -0.97268,0.75605 -1.0406,0.5414 -0.91128,-2.87981 0.16491,-4.35965 -1.36551,-8.52799 -4.34459,-11.83324 -2.36927,-2.62867 -8.18704,-5.84971 -10.77888,-5.96782 -2.353,-0.10721 -1.45791,-0.98927 5.7087,-5.62567 28.53672,-18.46167 65.4614,-12.926 87.17876,13.06972 7.09265,8.48986 10.02281,11.82965 13.45149,24.81903 2.7085,10.26083 2.09859,12.84035 1.88487,19.07758 -0.4144,12.10414 -3.92862,23.48575 -10.44662,33.83386 -5.09833,8.0942 -8.31506,10.10071 -12.81605,7.99433 z"
           id="path20501-5" />
        <path
           style="fill:#ec2227;fill-opacity:1;stroke-width:0.732046"
           d="m 404.46149,400.40918 c -3.0028,0.0165 -6.10615,-0.11036 -6.89633,-0.28186 -0.79019,-0.1715 -4.98476,0.44734 -9.32124,1.3752 -8.66377,1.85372 -17.13678,1.88816 -25.73946,0.10464 -5.08229,-1.05371 -13.92537,-3.92695 -14.89423,-4.83942 -0.31534,-0.29716 2.76909,-5.71687 6.85461,-12.04388 l 7.42823,-11.50368 5.16542,1.21783 c 6.91828,1.6311 14.84154,1.26361 21.25605,-0.98587 l 4.99877,-1.75302 1.85857,5.42195 c 3.48702,10.17254 10.2378,16.09941 18.95684,16.64317 4.01504,0.25037 13.65919,-1.91485 16.87739,-3.78922 1.09407,-0.63721 0.89583,-0.24301 -0.59643,1.18532 -5.53916,5.30252 -16.46483,9.19681 -25.94819,9.24884 z"
           id="path3984-4" />
      </g>
      <g
         aria-label="Iqonno"
         id="text10709-7"
         style="font-size:120.539px;line-height:1.25;fill:#f8f9fa;stroke-width:0.627805;fill-opacity:1">
        <path
           d="m 458.01551,283.85685 h 15.18791 v 83.53353 h -15.18791 z"
           style="font-weight:500;font-family:Ubuntu;-inkscape-font-specification:'Ubuntu Medium';fill:#f8f9fa;fill-opacity:1"
           id="path70186" />
        <path
           d="m 503.94085,336.17078 q 0,9.16096 3.61617,14.58522 3.7367,5.42425 11.69228,5.42425 3.61617,0 6.75018,-1.08485 3.25456,-1.20539 5.18318,-2.53132 v -36.04116 q -1.56701,-0.36161 -3.97779,-0.60269 -2.29024,-0.36162 -6.02695,-0.36162 -8.07611,0 -12.65659,5.54479 -4.58048,5.42426 -4.58048,15.06738 z m -14.94684,-0.24108 q 0,-7.47342 2.1697,-13.50037 2.29024,-6.14749 6.38857,-10.36635 4.21886,-4.3394 10.12527,-6.62965 5.90642,-2.41078 13.37983,-2.41078 7.47342,0 13.98253,1.08486 6.5091,1.08485 10.72797,2.29024 v 83.29245 h -14.58522 v -24.46942 q -2.53132,1.32593 -6.26803,2.41078 -3.61617,1.08485 -8.07611,1.08485 -6.75019,0 -11.93336,-2.29024 -5.18318,-2.41078 -8.67881,-6.75019 -3.49563,-4.3394 -5.42426,-10.36635 -1.80808,-6.02695 -1.80808,-13.37983 z"
           style="font-weight:500;font-family:Ubuntu;-inkscape-font-specification:'Ubuntu Medium';fill:#f8f9fa;fill-opacity:1"
           id="path70188" />
        <path
           d="m 621.34568,335.80916 q 0,7.47342 -2.1697,13.62091 -2.1697,6.14749 -6.14749,10.48689 -3.97778,4.33941 -9.64312,6.75019 -5.54479,2.41078 -12.29498,2.41078 -6.75018,0 -12.29497,-2.41078 -5.5448,-2.41078 -9.52259,-6.75019 -3.97778,-4.3394 -6.26802,-10.48689 -2.16971,-6.14749 -2.16971,-13.62091 0,-7.47342 2.16971,-13.50037 2.29024,-6.14748 6.26802,-10.48689 4.09833,-4.3394 9.64312,-6.62964 5.5448,-2.41078 12.17444,-2.41078 6.62965,0 12.17444,2.41078 5.66534,2.29024 9.64312,6.62964 3.97779,4.33941 6.14749,10.48689 2.29024,6.02695 2.29024,13.50037 z m -14.94683,0 q 0,-9.40204 -4.09833,-14.82629 -3.97779,-5.5448 -11.21013,-5.5448 -7.23234,0 -11.33066,5.5448 -3.97779,5.42425 -3.97779,14.82629 0,9.52258 3.97779,15.06738 4.09832,5.54479 11.33066,5.54479 7.23234,0 11.21013,-5.54479 4.09833,-5.5448 4.09833,-15.06738 z"
           style="font-weight:500;font-family:Ubuntu;-inkscape-font-specification:'Ubuntu Medium';fill:#f8f9fa;fill-opacity:1"
           id="path70190" />
        <path
           d="m 636.413,306.39765 q 4.21887,-1.20539 10.96905,-2.29024 6.75019,-1.08486 14.94684,-1.08486 7.71449,0 12.89767,2.16971 5.18318,2.04916 8.19665,5.90641 3.13402,3.73671 4.33941,9.16096 1.32593,5.30372 1.32593,11.69228 v 35.43847 h -14.58522 v -33.14822 q 0,-5.06264 -0.72324,-8.55827 -0.60269,-3.61617 -2.1697,-5.78588 -1.44647,-2.29024 -4.09832,-3.25455 -2.53132,-1.08485 -6.26803,-1.08485 -2.7724,0 -5.78587,0.36162 -3.01348,0.36161 -4.45995,0.60269 v 50.86746 H 636.413 Z"
           style="font-weight:500;font-family:Ubuntu;-inkscape-font-specification:'Ubuntu Medium';fill:#f8f9fa;fill-opacity:1"
           id="path70192" />
        <path
           d="m 706.9282,306.39765 q 4.21887,-1.20539 10.96905,-2.29024 6.75018,-1.08486 14.94684,-1.08486 7.71449,0 12.89767,2.16971 5.18318,2.04916 8.19665,5.90641 3.13402,3.73671 4.33941,9.16096 1.32592,5.30372 1.32592,11.69228 v 35.43847 h -14.58521 v -33.14822 q 0,-5.06264 -0.72324,-8.55827 -0.60269,-3.61617 -2.1697,-5.78588 -1.44647,-2.29024 -4.09833,-3.25455 -2.53132,-1.08485 -6.26802,-1.08485 -2.7724,0 -5.78588,0.36162 -3.01347,0.36161 -4.45994,0.60269 v 50.86746 H 706.9282 Z"
           style="font-weight:500;font-family:Ubuntu;-inkscape-font-specification:'Ubuntu Medium';fill:#f8f9fa;fill-opacity:1"
           id="path70194" />
        <path
           d="m 834.45835,335.80916 q 0,7.47342 -2.16971,13.62091 -2.1697,6.14749 -6.14748,10.48689 -3.97779,4.33941 -9.64312,6.75019 -5.5448,2.41078 -12.29498,2.41078 -6.75019,0 -12.29498,-2.41078 -5.5448,-2.41078 -9.52258,-6.75019 -3.97779,-4.3394 -6.26803,-10.48689 -2.1697,-6.14749 -2.1697,-13.62091 0,-7.47342 2.1697,-13.50037 2.29024,-6.14748 6.26803,-10.48689 4.09832,-4.3394 9.64312,-6.62964 5.54479,-2.41078 12.17444,-2.41078 6.62964,0 12.17444,2.41078 5.66533,2.29024 9.64312,6.62964 3.97778,4.33941 6.14749,10.48689 2.29024,6.02695 2.29024,13.50037 z m -14.94684,0 q 0,-9.40204 -4.09833,-14.82629 -3.97778,-5.5448 -11.21012,-5.5448 -7.23234,0 -11.33067,5.5448 -3.97779,5.42425 -3.97779,14.82629 0,9.52258 3.97779,15.06738 4.09833,5.54479 11.33067,5.54479 7.23234,0 11.21012,-5.54479 4.09833,-5.5448 4.09833,-15.06738 z"
           style="font-weight:500;font-family:Ubuntu;-inkscape-font-specification:'Ubuntu Medium';fill:#f8f9fa;fill-opacity:1"
           id="path70196" />
      </g>
    </g>
  </g>
</svg>
